<svg xmlns="http://www.w3.org/2000/svg" width="46.458" height="54.747" viewBox="0 0 46.458 54.747">
    <defs>
        <style>
            .prefix__cls-2{fill:#071e54}
        </style>
    </defs>
    <g id="prefix__Group_3489" data-name="Group 3489" style="opacity:.5">
        <g id="prefix__Group_1816" data-name="Group 1816" transform="translate(7.255)">
            <g id="prefix__Group_1814" data-name="Group 1814">
                <g id="prefix__Group_1813" data-name="Group 1813">
                    <path id="prefix__Path_1095" d="M297.3 175.587v2.645c1.919-1.724 2.347-6.415 2.347-6.415-.014-.651-.022-1.3-.022-1.939a12.793 12.793 0 0 0-25.586 0c0 1.781.155 3.719.061 5.5a2.425 2.425 0 0 0 1.521 1.5 3.057 3.057 0 0 0 .607.26 10.6 10.6 0 0 0 3.925 7.49 10.53 10.53 0 0 0 1.447.982v1.571s.114 1.349-.6 1.741a1.266 1.266 0 0 1-.18.089l-7.406 2.962a4.133 4.133 0 0 0-2.611 3.856v5.371a.913.913 0 0 0 .913.913h.167v8.807a.913.913 0 1 0 1.825 0v-8.808h2.492v8.808a.913.913 0 1 0 1.825 0v-11.88a.913.913 0 1 0-1.825 0v1.247h-3.575v-4.454a2.316 2.316 0 0 1 1.463-2.161l3.641-1.456c1.251 3.945 4.921 9.266 9.1 9.266s7.853-5.321 9.1-9.266l3.641 1.456a2.316 2.316 0 0 1 1.463 2.161v4.454h-3.563v-1.247a.913.913 0 1 0-1.825 0v11.88a.913.913 0 1 0 1.825 0v-8.808h2.495v8.808a.913.913 0 1 0 1.825 0v-8.808h.167a.913.913 0 0 0 .913-.913v-5.367a4.133 4.133 0 0 0-2.61-3.856l-6.767-2.707a1.917 1.917 0 0 1-1.4-1.285l-.019-.8v-1.571a10.537 10.537 0 0 0 1.447-.982 10.608 10.608 0 0 0 3.953-8.273c0-5.316-3.851-6.081-7.574-6.82-2.382-.473-4.844-.962-6.809-2.533a.914.914 0 0 0-1.386.3 10.707 10.707 0 0 1-1.381 2 4.658 4.658 0 0 1-3.2 1.82 3.054 3.054 0 0 0-1.261.272c.009-.51.014-1.017.014-1.519a10.968 10.968 0 0 1 21.936 0c0 .921.016 1.859.044 2.8a17.7 17.7 0 0 1-.557 2.909zm-16 7.625a8.782 8.782 0 0 1-3.275-6.854.913.913 0 0 0-.913-.913 1.247 1.247 0 1 1 0-2.495c2.768 0 4.775-2.506 5.682-3.908a18.84 18.84 0 0 0 6.742 2.286c4.011.8 6.1 1.382 6.1 5.03a8.782 8.782 0 0 1-3.275 6.854 8.809 8.809 0 0 1-11.065 0zm5.532 16.444c-3.429 0-6.433-4.861-7.4-8.12l2.066-.826a3.058 3.058 0 0 0 1.932-2.853v-1.429a10.569 10.569 0 0 0 6.815 0v1.429a3.058 3.058 0 0 0 1.932 2.853l2.066.826c-.973 3.259-3.976 8.12-7.406 8.12z" class="prefix__cls-2" data-name="Path 1095" transform="translate(-270.804 -157.085)"/>
                </g>
            </g>
            <g id="prefix__Group_1815" data-name="Group 1815" transform="translate(2.213 53.03)">
                <path id="prefix__Rectangle_2399" d="M0 0H27.785V1.704H0z" class="prefix__cls-2" data-name="Rectangle 2399"/>
            </g>
        </g>
        <g id="prefix__Group_1817" data-name="Group 1817" transform="translate(33.998 8.422)">
            <path id="prefix__Path_1096" d="M553.254 259.21a9.43 9.43 0 0 1-5.151-1.345 7.412 7.412 0 0 1-3.194-5.371.927.927 0 0 1 1.833-.281 5.641 5.641 0 0 0 2.372 4.1 7.954 7.954 0 0 0 4.62 1.035 4.184 4.184 0 0 1-.644-1.435 12.875 12.875 0 0 1-.092-4 11.972 11.972 0 0 0 .057-2.253 5.6 5.6 0 0 0-1.642-3.382 4.566 4.566 0 0 0-4.148-.893h-.02c-.486.112-.771.2-.9.242a.923.923 0 0 1-.58.2.927.927 0 0 1-.926-.928c0-.866.881-1.069 2-1.325h.016a6.408 6.408 0 0 1 5.823 1.335 7.454 7.454 0 0 1 2.223 4.493 13.006 13.006 0 0 1-.045 2.654c-.258 3.221-.081 4.62 1.688 4.948a.927.927 0 0 1 .071 1.807 14.131 14.131 0 0 1-3.361.399zm-6.567-14.3zm0 0zm0 0zm0 0zm0 0zm0 0z" class="prefix__cls-2" data-name="Path 1096" transform="translate(-544.833 -243.38)"/>
        </g>
        <g id="prefix__Group_1818" data-name="Group 1818" transform="translate(0 8.422)">
            <path id="prefix__Path_1097" d="M200.5 259.211a14.117 14.117 0 0 1-3.351-.4.927.927 0 0 1 .071-1.807c1.769-.328 1.947-1.727 1.688-4.948a13.009 13.009 0 0 1-.045-2.654 7.454 7.454 0 0 1 2.223-4.493 6.409 6.409 0 0 1 5.823-1.335h.016c1.115.256 2 .459 2 1.325a.927.927 0 0 1-.926.928.923.923 0 0 1-.58-.2c-.133-.046-.418-.13-.9-.242h-.02a4.566 4.566 0 0 0-4.148.893 5.6 5.6 0 0 0-1.642 3.382 11.953 11.953 0 0 0 .057 2.253 12.875 12.875 0 0 1-.092 4 4.185 4.185 0 0 1-.644 1.435 7.954 7.954 0 0 0 4.62-1.035 5.643 5.643 0 0 0 2.372-4.1.927.927 0 1 1 1.833.281 7.413 7.413 0 0 1-3.194 5.371 9.435 9.435 0 0 1-5.161 1.346zm6.567-14.3zm0 0zm0 0zm0 0zm0 0zm0 0z" class="prefix__cls-2" data-name="Path 1097" transform="translate(-196.465 -243.38)"/>
        </g>
    </g>
</svg>
