<svg xmlns="http://www.w3.org/2000/svg" width="32.23" height="56.094" viewBox="0 0 32.23 56.094">
    <defs>
        <style>
            .prefix__cls-2{fill:#071e54}
        </style>
    </defs>
    <g id="prefix__Group_3492" data-name="Group 3492" style="opacity:.5">
        <path id="prefix__Path_1102" d="M2140.141 175.106a10.092 10.092 0 0 0 4.076 7.374v2.389a.735.735 0 0 1 .445.261 2.268 2.268 0 0 0 .621.551l.066.04a.855.855 0 0 1 .6-.04v-2.166a10.076 10.076 0 0 0 8.523 0v1.547c.548-.18 1.106-.334 1.65-.53a.8.8 0 0 1 .083-.024v-2.028a10.094 10.094 0 0 0 4.076-7.374 2.909 2.909 0 0 0 1.053-5.005v-6a4.967 4.967 0 0 0-2.2-4.1 3.917 3.917 0 0 0-3.8-2.918h-8.206a8.056 8.056 0 0 0-8.046 8.046v4.971a2.909 2.909 0 0 0 1.053 5.005zm.681-9.975a6.32 6.32 0 0 1 6.313-6.313h8.206a2.2 2.2 0 0 1 2.173 1.863.864.864 0 0 0 .429.619 3.252 3.252 0 0 1 1.614 2.285c-3.986 2.242-15.419 2.731-15.5 2.731a.866.866 0 0 0-.822.593l-.792 2.376a.159.159 0 0 1-.151.109h-1.312c-.054 0-.106 0-.159.005zm-.432 6.162c.02-.011.037-.024.055-.037a1.182 1.182 0 0 1 .536-.13h1.312a1.89 1.89 0 0 0 1.8-1.294l.6-1.791c3.268-.122 10.965-1.007 14.917-2.588v5.091a.868.868 0 0 0 .431.749 1.171 1.171 0 0 1 .595 1.018 1.186 1.186 0 0 1-1.184 1.185.867.867 0 0 0-.867.867 8.364 8.364 0 1 1-16.728 0 .867.867 0 0 0-.867-.867 1.186 1.186 0 0 1-1.186-1.185 1.172 1.172 0 0 1 .587-1.018z" class="prefix__cls-2" data-name="Path 1102" transform="translate(-2133.96 -157.085)"/>
        <path id="prefix__Path_1103" d="M2104.487 442.067l1.616-2.254-1.21.363-5.05 1.515a3.919 3.919 0 0 0-2.81 3.777v10.019a.866.866 0 0 0 .866.867h.159v10.416a.863.863 0 0 0 1.017.853h4.829a.868.868 0 0 0 .15.014.879.879 0 0 0 .15-.014h23.123a.886.886 0 0 0 .846-.623.864.864 0 0 0 .065-.327v-10.416h.159a.867.867 0 0 0 .866-.867v-10.019a3.92 3.92 0 0 0-2.81-3.777l-1.771-.516-3.6-1.081.639 1.96 1.4.464 1.891.564a.854.854 0 0 0 .148.029l.8.241a2.2 2.2 0 0 1 1.575 2.117v9.152h-4.421v-4.057l1.96-3.92a.867.867 0 0 0-1.55-.775l-2.052 4.1a.875.875 0 0 0-.092.388v15.59h-16.46v-15.491a.859.859 0 0 0-.092-.388l-2.051-4.1a.867.867 0 1 0-1.551.775l1.96 3.92v4.057h-4.421v-9.152a2.2 2.2 0 0 1 1.575-2.117l2.683-.8zm-1.3 23.783h-3.4v-9.5h3.4zm23.317 0h-3.4v-9.594h3.4z" class="prefix__cls-2" data-name="Path 1103" transform="translate(-2097.033 -411.542)"/>
        <g id="prefix__Group_1839" data-name="Group 1839" transform="translate(4.103 26.328)">
            <g id="prefix__Group_1828" data-name="Group 1828" transform="translate(0 7.442)">
                <g id="prefix__Group_1827" data-name="Group 1827">
                    <path id="prefix__Path_1104" d="M2141.772 499.411l-2.059-4.117a.87.87 0 1 0-1.556.778l1.967 3.933v16.262a.87.87 0 0 0 1.74 0V499.8a.87.87 0 0 0-.092-.389z" class="prefix__cls-2" data-name="Path 1104" transform="translate(-2138.065 -494.813)"/>
                </g>
            </g>
            <g id="prefix__Group_1830" data-name="Group 1830" transform="translate(20.584 7.442)">
                <g id="prefix__Group_1829" data-name="Group 1829">
                    <path id="prefix__Path_1105" d="M2347.236 494.906a.869.869 0 0 0-1.167.389l-2.059 4.117a.867.867 0 0 0-.091.389v16.467a.87.87 0 1 0 1.739 0v-16.263l1.967-3.933a.87.87 0 0 0-.389-1.166z" class="prefix__cls-2" data-name="Path 1105" transform="translate(-2343.92 -494.813)"/>
                </g>
            </g>
            <g id="prefix__Group_1832" data-name="Group 1832" transform="translate(3.089)">
                <g id="prefix__Group_1831" data-name="Group 1831">
                    <path id="prefix__Path_1106" d="M2174.216 428.43a.158.158 0 0 1-.22-.028l-3.1-3.87 1.169-1.753 4.587 3.822zm8.117-8.047v1.559l-4.277 3.563-4.276-3.563v-1.559l-1.74.254a.864.864 0 0 0-.285-.006.873.873 0 0 0-.6.378l-.941 1.412-1.262 2.195a.87.87 0 0 0 .189.507l3.494 4.367a1.892 1.892 0 0 0 2.623.333l1.927-1.445v20.9a.869.869 0 1 0 1.739 0v-20.9l1.927 1.445a1.891 1.891 0 0 0 2.622-.333l3.494-4.367a.868.868 0 0 0 .19-.507l-1.262-2.195-.941-1.412a.868.868 0 0 0-.884-.372zm-.216 8.019a.158.158 0 0 1-.22.028l-2.439-1.829 4.587-3.822 1.168 1.753z" class="prefix__cls-2" data-name="Path 1106" transform="translate(-2168.954 -420.383)"/>
                </g>
            </g>
            <g id="prefix__Group_1834" data-name="Group 1834" transform="translate(8.239 14.647)">
                <g id="prefix__Group_1833" data-name="Group 1833">
                    <path id="prefix__Path_1107" d="M2221.335 566.865h-.01a.875.875 0 1 0 .01 0z" class="prefix__cls-2" data-name="Path 1107" transform="translate(-2220.46 -566.865)"/>
                </g>
            </g>
            <g id="prefix__Group_1836" data-name="Group 1836" transform="translate(8.239 22.881)">
                <g id="prefix__Group_1835" data-name="Group 1835">
                    <path id="prefix__Path_1108" d="M2221.335 649.206h-.01a.875.875 0 1 0 .01 0z" class="prefix__cls-2" data-name="Path 1108" transform="translate(-2220.46 -649.206)"/>
                </g>
            </g>
            <g id="prefix__Group_1838" data-name="Group 1838" transform="translate(8.239 18.764)">
                <g id="prefix__Group_1837" data-name="Group 1837">
                    <path id="prefix__Path_1109" d="M2221.335 608.036h-.01a.875.875 0 1 0 .01 0z" class="prefix__cls-2" data-name="Path 1109" transform="translate(-2220.46 -608.036)"/>
                </g>
            </g>
        </g>
        <g id="prefix__Group_1842" data-name="Group 1842" transform="translate(11.532 19.169)">
            <g id="prefix__Group_1840" data-name="Group 1840" transform="translate(3.805)">
                <path id="prefix__Path_1110" d="M2254.8 351.875a2.445 2.445 0 0 1-1.686-.926 2.462 2.462 0 0 0-.405-.366 1.884 1.884 0 0 0-1.23.019.85.85 0 0 1-.429-1.645 3.349 3.349 0 0 1 2.466.129 3.488 3.488 0 0 1 .814.674 2.115 2.115 0 0 0 .479.412h.012a.85.85 0 0 1 .5 1.625 1.759 1.759 0 0 1-.521.078z" class="prefix__cls-2" data-name="Path 1110" transform="translate(-2250.414 -348.791)"/>
            </g>
            <g id="prefix__Group_1841" data-name="Group 1841">
                <path id="prefix__Path_1111" d="M2213.484 351.876a1.769 1.769 0 0 1-.519-.081.85.85 0 0 1 .5-1.625h.017a2.18 2.18 0 0 0 .474-.412 3.494 3.494 0 0 1 .814-.674 3.348 3.348 0 0 1 2.466-.129.85.85 0 1 1-.429 1.645 1.884 1.884 0 0 0-1.23-.019 2.461 2.461 0 0 0-.405.366 2.443 2.443 0 0 1-1.688.929z" class="prefix__cls-2" data-name="Path 1111" transform="translate(-2212.365 -348.791)"/>
            </g>
        </g>
    </g>
</svg>
