<svg xmlns="http://www.w3.org/2000/svg" width="32.056" height="59.049" viewBox="0 0 32.056 59.049">
    <defs>
        <style>
            .prefix__cls-2{fill:#071e54}
        </style>
    </defs>
    <g id="prefix__Group_3491" data-name="Group 3491" style="opacity:.5">
        <g id="prefix__Group_1823" data-name="Group 1823">
            <g id="prefix__Group_1822" data-name="Group 1822">
                <path id="prefix__Path_1100" d="M1633 196.284l-7.4-2.961a1.241 1.241 0 0 1-.784-1.158v-2.243a10.558 10.558 0 0 0 1.447-.981 10.607 10.607 0 0 0 3.952-8.271c0-5.314-3.849-6.079-7.572-6.818-2.381-.473-4.843-.961-6.806-2.532a.913.913 0 0 0-1.385.3 10.718 10.718 0 0 1-1.381 2 4.657 4.657 0 0 1-3.2 1.819 3.049 3.049 0 0 0-1.247.266v-1.513a10.964 10.964 0 1 1 21.928 0v2.159a.912.912 0 0 0 1.825 0v-2.159a12.8 12.8 0 0 0-6.539-11.154 4.446 4.446 0 0 0 .061-.722c0-2.884-2.831-5.231-6.311-5.231s-6.311 2.347-6.311 5.231a4.419 4.419 0 0 0 .061.723 12.8 12.8 0 0 0-6.539 11.154v4.319a3.077 3.077 0 0 0 2.188 2.942 10.611 10.611 0 0 0 5.37 8.469v2.243a1.241 1.241 0 0 1-.784 1.158l-7.4 2.961a4.132 4.132 0 0 0-2.61 3.854v5.361a.912.912 0 0 0 .913.912h.167v8.8a.912.912 0 0 0 1.825 0v-8.8h2.494v8.8a.912.912 0 0 0 1.825 0v-11.868a.912.912 0 1 0-1.825 0v1.247h-3.574v-4.453a2.315 2.315 0 0 1 1.463-2.16l5.757-2.3a16.808 16.808 0 0 0 6.575 6.325.913.913 0 0 0 .816 0 16.809 16.809 0 0 0 6.575-6.325l5.758 2.3a2.316 2.316 0 0 1 1.462 2.16v4.453h-3.573v-1.247a.912.912 0 1 0-1.825 0v11.877a.912.912 0 1 0 1.825 0v-8.8h2.494v8.8a.912.912 0 0 0 1.825 0v-8.8h.167a.913.913 0 0 0 .912-.912v-5.365a4.132 4.132 0 0 0-2.619-3.86zm-13.418-37.374c2.429 0 4.412 1.474 4.483 3.305a12.786 12.786 0 0 0-8.965 0c.069-1.831 2.052-3.305 4.481-3.305zm-5.531 28.613a8.779 8.779 0 0 1-3.274-6.852.913.913 0 0 0-.912-.912 1.247 1.247 0 1 1 0-2.494c2.767 0 4.773-2.505 5.68-3.907a18.835 18.835 0 0 0 6.74 2.286c4.01.8 6.1 1.381 6.1 5.028a8.783 8.783 0 0 1-3.274 6.851 8.806 8.806 0 0 1-11.061 0zm5.531 12.632a15.261 15.261 0 0 1-5.264-5.169 3.055 3.055 0 0 0 1.858-2.82v-1.429a10.563 10.563 0 0 0 6.813 0v1.429a3.055 3.055 0 0 0 1.858 2.82 15.256 15.256 0 0 1-5.266 5.168z" class="prefix__cls-2" data-name="Path 1100" transform="translate(-1603.553 -157.085)"/>
            </g>
        </g>
        <g id="prefix__Group_1824" data-name="Group 1824" transform="translate(25.314 18.165)">
            <path id="prefix__Path_1101" d="M1844.867 336.5l-.883-1.617c1.638-.894 1.674-3.16 1.682-4.815v-.46l1.817.027v.483c-.005 1.882-.024 4.972-2.616 6.382z" class="prefix__cls-2" data-name="Path 1101" transform="translate(-1843.984 -329.612)"/>
        </g>
        <g id="prefix__Group_1825" data-name="Group 1825" transform="translate(1.872 57.25)">
            <path id="prefix__Rectangle_2400" d="M0 0H28.322V1.79H0z" class="prefix__cls-2" data-name="Rectangle 2400"/>
        </g>
    </g>
</svg>
