<svg xmlns="http://www.w3.org/2000/svg" width="37.664" height="56.421" viewBox="0 0 37.664 56.421">
    <path id="prefix__Path_1948" d="M652.782 1239.484l-2.07-.6-6.312-1.894v-2.943l-.348.21a13.672 13.672 0 0 0 2.934-8.662c0-6.666-4.33-12.09-9.653-12.09s-9.655 5.424-9.655 12.09a13.742 13.742 0 0 0 2.8 8.5l-.088-.053V1237l-8.7 2.61a4.58 4.58 0 0 0-3.285 4.413v11.706a1.013 1.013 0 0 0 1.013 1.013h.185v12.169a1.008 1.008 0 0 0 1.007 1.009 1.025 1.025 0 0 0 .182-.016h5.642a.966.966 0 0 0 .351 0H653.8a1.038 1.038 0 0 0 .993-.729 1.015 1.015 0 0 0 .074-.383v-12.169h.187a1.013 1.013 0 0 0 1.014-1.012v-11.706a4.58 4.58 0 0 0-3.286-4.421zm-15.448-23.834c4.137 0 7.5 4.459 7.5 9.941s-3.366 9.941-7.5 9.941-7.506-4.459-7.506-9.941 3.367-9.942 7.505-9.942zm-6.8 23.417c1.8-.46 1.888-1.273 1.888-1.273l.01-.009v-1.8a7.954 7.954 0 0 0 9.958-.114v1.838s-.013.8 1.9 1.357l2.663.8a9.773 9.773 0 0 1-19.079 0zm-4.922 28.757h-3.972v-11.095h3.972zm27.243 0h-3.97v-11.209h3.971zm-3.97-13.238v-4.74l2.29-4.58a1.013 1.013 0 0 0-1.812-.9l-2.4 4.8a1.021 1.021 0 0 0-.107.453v18.214H627.63v-18.094a1 1 0 0 0-.108-.453l-2.4-4.8a1.012 1.012 0 0 0-1.811.906l2.29 4.58v4.743h-5.161v-10.69a2.567 2.567 0 0 1 1.84-2.474l3.641-1.091a11.8 11.8 0 0 0 22.969 0l2.207.662a1.069 1.069 0 0 0 .165.036l.938.28a2.567 2.567 0 0 1 1.84 2.474l.009 10.681z" data-name="Path 1948" transform="translate(-618.405 -1213.5)" style="fill:#071e54;opacity:.5"/>
</svg>
