<svg xmlns="http://www.w3.org/2000/svg" width="31.704" height="55.177" viewBox="0 0 31.704 55.177">
    <defs>
        <style>
            .prefix__cls-2{fill:#071e54}
        </style>
    </defs>
    <g id="prefix__Group_3494" data-name="Group 3494" style="opacity:.5">
        <path id="prefix__Path_1098" d="M1107.523 186.646l-1.742-.508-5.313-1.594v-2.479a9.929 9.929 0 0 0 4.009-7.253 2.862 2.862 0 0 0 1.036-4.923v-5.9a4.885 4.885 0 0 0-2.161-4.035 3.852 3.852 0 0 0-3.736-2.871h-8.071a7.924 7.924 0 0 0-7.915 7.915v4.888a2.862 2.862 0 0 0 1.036 4.923 9.93 9.93 0 0 0 4.009 7.253v2.479l-7.324 2.2a3.856 3.856 0 0 0-2.765 3.716v9.855a.853.853 0 0 0 .853.853h.156v10.245a.849.849 0 0 0 1 .839h4.75a.852.852 0 0 0 .147.014.861.861 0 0 0 .147-.014h22.745a.872.872 0 0 0 .833-.613.85.85 0 0 0 .063-.322v-10.245h.157a.853.853 0 0 0 .852-.853v-9.855a3.855 3.855 0 0 0-2.766-3.715zm-21.18-12.566a.853.853 0 0 0-.852-.853 1.167 1.167 0 0 1-1.165-1.165 1.152 1.152 0 0 1 .585-1c.019-.011.036-.024.054-.036a1.182 1.182 0 0 1 .274-.1 5.017 5.017 0 0 1 .018-.669 1.71 1.71 0 0 1 .078-1.317V165a6.217 6.217 0 0 1 6.209-6.21h8.071a2.158 2.158 0 0 1 2.137 1.833.852.852 0 0 0 .423.609 3.2 3.2 0 0 1 1.588 2.247l.044 1.837v5.008a.853.853 0 0 0 .424.737 1.151 1.151 0 0 1 .585 1 1.166 1.166 0 0 1-1.165 1.165.852.852 0 0 0-.853.853 8.228 8.228 0 0 1-16.455 0zm4.037 11.137v-.028-2.106a9.911 9.911 0 0 0 8.384 0v2.066s-.01.67 1.6 1.143l2.241.672a8.228 8.228 0 0 1-16.063 0l2.241-.672c1.529-.392 1.596-1.075 1.596-1.075zm-5.742 25.288h-3.34v-9.341h3.34zm22.936 0h-3.34v-9.437h3.34zm1.008-11.142h-4.348v-3.991l1.928-3.856a.853.853 0 0 0-1.525-.763l-2.018 4.036a.849.849 0 0 0-.09.381v15.334h-16.186v-15.237a.852.852 0 0 0-.09-.381l-2.018-4.036a.853.853 0 0 0-1.525.763l1.928 3.856v3.991h-4.348v-9a2.161 2.161 0 0 1 1.549-2.082l3.062-.919a9.933 9.933 0 0 0 19.338 0l1.859.558a.859.859 0 0 0 .146.029l.79.237a2.161 2.161 0 0 1 1.549 2.083z" class="prefix__cls-2" data-name="Path 1098" transform="translate(-1078.584 -157.085)"/>
        <g id="prefix__Group_1820" data-name="Group 1820" transform="translate(5.355 4.79)">
            <path id="prefix__Path_1099" d="M1133.911 214.9a.885.885 0 0 1-.151-1.757 9.856 9.856 0 0 0 7.413-5.921.887.887 0 0 1 1.46-.33 12.235 12.235 0 0 0 1.565 1.34 3.761 3.761 0 0 1-.174-1.74.885.885 0 0 1 1.494-.452c2.616 2.616 8.09 2.952 8.145 2.955a.885.885 0 1 1-.1 1.768 19.6 19.6 0 0 1-7.015-1.844 5.727 5.727 0 0 0 .532.586.885.885 0 0 1-.583 1.521c-.2.008-1.819 0-4.2-2.035a11.509 11.509 0 0 1-8.231 5.9.9.9 0 0 1-.155.009z" class="prefix__cls-2" data-name="Path 1099" transform="translate(-1133.026 -205.782)"/>
        </g>
    </g>
</svg>
